# xmcd
#
# Track frame offsets:
#	150
#	27767
#	59242
#	101025
#	128145
#	155852
#	195607
#	229892
#	263677
#	299246
#
# Disc length: 4464 seconds
#
# Revision: 0
# Processed by: cddbd v1.4b42PL1 Copyright (c) Steve Scherf et al.
# Submitted via: audiograbber 1.80
#
DISCID=9d116e0a
DTITLE=Eric Clapton -  Bad Love Disc 1
DYEAR=1900
DGENRE=
TTITLE0=Pretending
TTITLE1=Running On Faith
TTITLE2=I Shot The Sheriff
TTITLE3=Whith Room
TTITLE4=before You Accuse Me
TTITLE5=Old Love
TTITLE6=No Alibis
TTITLE7=Tearing Us Apart
TTITLE8=Wonderful Tonight
TTITLE9=Layla
EXTD=
EXTT0=
EXTT1=
EXTT2=
EXTT3=
EXTT4=
EXTT5=
EXTT6=
EXTT7=
EXTT8=
EXTT9=
PLAYORDER=
